# xmcd CD database file
#
# Track frame offsets:
#	150
#	13365
#	25148
#	43568
#	59306
#	76476
#	99696
#	114568
#	131407
#	143576
#
# Disc length: 2140 seconds
#
# Revision: 0
# Processed by: cddbd v1.5.2PL0 Copyright (c) Steve Scherf et al.
# Submitted via: CDex 1.70beta2
#
DISCID=81085a0a
DTITLE=Joe Kennedy - No Turning Back
DYEAR=2008
DGENRE=Jazz
TTITLE0=It Don't Bother Me
TTITLE1=Destined To Roam
TTITLE2=Goodbye My Friend
TTITLE3=Celebrate
TTITLE4=Fit Like A Glove
TTITLE5=Still Living
TTITLE6=Give You The Blues
TTITLE7=The Days
TTITLE8=Improv
TTITLE9=So Long
EXTD=YEAR: 2008
EXTT0=
EXTT1=
EXTT2=
EXTT3=
EXTT4=
EXTT5=
EXTT6=
EXTT7=
EXTT8=
EXTT9=
PLAYORDER=
